<svg xmlns="http://www.w3.org/2000/svg" version="1.1" xmlns:xlink="http://www.w3.org/1999/xlink" xmlns:svgjs="http://svgjs.dev/svgjs" width="2000" height="1829" viewBox="0 0 2000 1829"><g transform="matrix(1,0,0,1,0.7145848555187513,0.7418532257531751)"><svg viewBox="0 0 270 247" data-background-color="#000000" preserveAspectRatio="xMidYMid meet" height="1829" width="2000" xmlns="http://www.w3.org/2000/svg" xmlns:xlink="http://www.w3.org/1999/xlink"><g id="tight-bounds" transform="matrix(1,0,0,1,-0.09646895549502688,-0.09997365579206985)"><svg viewBox="0 0 270.19293791099005 247.2" height="247.2" width="270.19293791099005"><g><svg viewBox="0 0 270.19293791099005 247.2" height="247.2" width="270.19293791099005"><g><svg viewBox="0 0 270.19293791099005 247.2" height="247.2" width="270.19293791099005"><g id="textblocktransform"><svg viewBox="0 0 270.19293791099005 247.2" height="247.2" width="270.19293791099005" id="textblock"><g><svg viewBox="0 0 270.19293791099005 247.2" height="247.2" width="270.19293791099005"><path d="M269.56 53.02C268.29 27.36 264.67 20.227 264.67 20.227 253.555-6.202 239.684-0.506 227.223 3.292 205.223 3.446 183.311 9.091 161.362 12.119 115.29 12.581 68.825 4.986 22.982 23.717 18.676 29.464-4.467 24.846 0.766 56.304 2.138 69.39 7.143 83.913 6.99 95.922 7.676 98.026 8.629 93.202 9.035 96.23 10.458 104.39 12.782 100.541 14.688 105.365 12.033 118.246 13.938 128.971 15.755 140.21 12.554 143.135 8.451 141.749 6.609 151.449 6.418 158.479 5.39 157.145 4.259 156.837 3.433 156.632 1.769 157.402 2.049 159.608 3.002 167.152-1.089 171.514 1.477 178.904-0.288 186.91 2.697 193.838 2.29 202.511 2.239 204.255 2.519 205.744 2.963 206.154 4.932 208.361 2.062 212.672 2.366 217.342 22.563 249.262 44.475 227.195 65.167 241.872 70.54 231.608 66.501 245.516 68.647 243.36 70.324 240.846 71.543 251.263 73.436 245.362 73.728 243.668 73.284 239.665 74.325 240.435 74.871 240.846 75.354 240.743 75.43 238.382 75.545 234.841 74.541 237.048 74.274 235.201 77.158 225.861 76.447 248.081 79.152 247.158 79.025 244.438 78.238 240.538 79.851 241.051 81.451 237.151 81.502 233.918 82.925 242.693 82.976 244.592 83.23 245.926 83.636 246.85 88.082 237.305 92.502 250.237 97.164 245.926 100.022 241.205 102.766 248.492 105.662 246.696 106.678 245.259 107.707 242.693 108.685 247.004 120.663 247.928 133.429 244.079 144.785 247.158 175.131 241.41 207.56 249.518 239.557 241.923 247.103 238.998 254.94 234.841 262.295 231.506 262.295 231.506 268.252 222.371 268.252 181.316S269.522 145.393 269.713 112.703C269.903 80.013 270.792 78.679 269.522 53.02Z" opacity="1" fill="#ffffff" data-fill-palette-color="tertiary"></path><g transform="matrix(1,0,0,1,55.76832,26.230666666666668)"><svg width="158.65629791099002" viewBox="1.65 -36.5 29.9 36.7" height="194.73866666666666" data-palette-color="#161618"><path d="M12.15-22.65L12.7-22.55 20.2-33.15Q22.2-36 24.55-36.38 26.9-36.75 28.8-35.25L28.8-35.25Q30.05-34.3 30.45-32.7 30.85-31.1 30.2-29.3 29.55-27.5 27.6-25.9L27.6-25.9 19.25-19.15 19.25-18.1Q20.85-18.1 23-17.7 25.15-17.3 26.9-15.9L26.9-15.9Q28.3-14.85 29.33-13.5 30.35-12.15 30.95-10.18 31.55-8.2 31.55-5.2L31.55-5.2Q31.55-2.75 30.23-1.28 28.9 0.2 26.3 0.2L26.3 0.2Q23.7 0.2 22.33-1.28 20.95-2.75 20.95-5.2L20.95-5.2Q20.95-7.95 20.08-9.58 19.2-11.2 17.75-11.95 16.3-12.7 14.6-12.7L14.6-12.7 12.15-12.7 12.15-4.85Q12.15-2.7 10.68-1.3 9.2 0.1 6.9 0.1L6.9 0.1Q4.6 0.1 3.13-1.3 1.65-2.7 1.65-4.85L1.65-4.85 1.65-31.3Q1.65-33.5 3.1-35 4.55-36.5 6.9-36.5L6.9-36.5Q9.4-36.5 10.78-35.02 12.15-33.55 12.15-31.4L12.15-31.4 12.15-22.65Z" opacity="1" transform="matrix(1,0,0,1,0,0)" fill="#000000" class="wordmark-text-0" data-fill-palette-color="quaternary" id="text-0"></path></svg></g></svg></g></svg></g></svg></g></svg></g><defs></defs></svg><rect width="270.19293791099005" height="247.2" fill="none" stroke="none" visibility="hidden"></rect></g></svg></g></svg>